{
  "asset": {
    "generator": "Khronos glTF Blender I/O v1.7.33",
    "version": "2.0"
  },
  "scene": 0,
  "scenes": [
    {
      "name": "blend_export",
      "nodes": [
        0
      ]
    }
  ],
  "nodes": [
    {
      "mesh": 0,
      "name": "brass_pot_02"
    }
  ],
  "materials": [
    {
      "doubleSided": true,
      "name": "brass_pot_02",
      "normalTexture": {
        "index": 0
      },
      "pbrMetallicRoughness": {
        "baseColorTexture": {
          "index": 1
        },
        "metallicRoughnessTexture": {
          "index": 2
        }
      }
    }
  ],
  "meshes": [
    {
      "name": "brass_pot_02",
      "primitives": [
        {
          "attributes": {
            "POSITION": 0,
            "NORMAL": 1,
            "TEXCOORD_0": 2
          },
          "indices": 3,
          "material": 0
        }
      ]
    }
  ],
  "textures": [
    {
      "sampler": 0,
      "source": 0
    },
    {
      "sampler": 0,
      "source": 1
    },
    {
      "sampler": 0,
      "source": 2
    }
  ],
  "images": [
    {
      "mimeType": "image/jpeg",
      "name": "brass_pot_02_nor_gl",
      "uri": "textures/brass_pot_02_nor_gl_1k.jpg"
    },
    {
      "mimeType": "image/jpeg",
      "name": "brass_pot_02_diff",
      "uri": "textures/brass_pot_02_diff_1k.jpg"
    },
    {
      "mimeType": "image/jpeg",
      "name": "brass_pot_02_metal-brass_pot_02_rough",
      "uri": "textures/brass_pot_02_arm_1k.jpg"
    }
  ],
  "accessors": [
    {
      "bufferView": 0,
      "componentType": 5126,
      "count": 2086,
      "max": [
        0.18333452939987183,
        0.10836517810821533,
        0.15119366347789764
      ],
      "min": [
        -0.18333452939987183,
        -0.0001811981201171875,
        -0.15109674632549286
      ],
      "type": "VEC3"
    },
    {
      "bufferView": 1,
      "componentType": 5126,
      "count": 2086,
      "type": "VEC3"
    },
    {
      "bufferView": 2,
      "componentType": 5126,
      "count": 2086,
      "type": "VEC2"
    },
    {
      "bufferView": 3,
      "componentType": 5123,
      "count": 10032,
      "type": "SCALAR"
    }
  ],
  "bufferViews": [
    {
      "buffer": 0,
      "byteLength": 25032,
      "byteOffset": 0
    },
    {
      "buffer": 0,
      "byteLength": 25032,
      "byteOffset": 25032
    },
    {
      "buffer": 0,
      "byteLength": 16688,
      "byteOffset": 50064
    },
    {
      "buffer": 0,
      "byteLength": 20064,
      "byteOffset": 66752
    }
  ],
  "samplers": [
    {
      "magFilter": 9729,
      "minFilter": 9987
    }
  ],
  "buffers": [
    {
      "byteLength": 86816,
      "uri": "brass_pot_02.bin"
    }
  ]
}