{
  "asset": {
    "generator": "Khronos glTF Blender I/O v4.1.62",
    "version": "2.0"
  },
  "scene": 0,
  "scenes": [
    {
      "name": "Scene",
      "nodes": [
        0
      ]
    }
  ],
  "nodes": [
    {
      "mesh": 0,
      "name": "metal_jug"
    }
  ],
  "materials": [
    {
      "doubleSided": true,
      "name": "metal_jug",
      "normalTexture": {
        "index": 0
      },
      "pbrMetallicRoughness": {
        "baseColorTexture": {
          "index": 1
        },
        "metallicFactor": 0,
        "metallicRoughnessTexture": {
          "index": 2
        }
      }
    }
  ],
  "meshes": [
    {
      "name": "Cylinder.001",
      "primitives": [
        {
          "attributes": {
            "POSITION": 0,
            "NORMAL": 1,
            "TEXCOORD_0": 2
          },
          "indices": 3,
          "material": 0
        }
      ]
    }
  ],
  "textures": [
    {
      "sampler": 0,
      "source": 0
    },
    {
      "sampler": 0,
      "source": 1
    },
    {
      "sampler": 0,
      "source": 2
    }
  ],
  "images": [
    {
      "mimeType": "image/jpeg",
      "name": "metal_jug_nor_gl",
      "uri": "textures/metal_jug_nor_gl_1k.jpg"
    },
    {
      "mimeType": "image/jpeg",
      "name": "metal_jug_diff",
      "uri": "textures/metal_jug_diff_1k.jpg"
    },
    {
      "mimeType": "image/jpeg",
      "name": "metal_jug_rough",
      "uri": "textures/metal_jug_arm_1k.jpg"
    }
  ],
  "accessors": [
    {
      "bufferView": 0,
      "componentType": 5126,
      "count": 3383,
      "max": [
        0.0988205075263977,
        0.2874242961406708,
        0.09772718697786331
      ],
      "min": [
        -0.09800121933221817,
        -0.00012543857155833393,
        -0.09772724658250809
      ],
      "type": "VEC3"
    },
    {
      "bufferView": 1,
      "componentType": 5126,
      "count": 3383,
      "type": "VEC3"
    },
    {
      "bufferView": 2,
      "componentType": 5126,
      "count": 3383,
      "type": "VEC2"
    },
    {
      "bufferView": 3,
      "componentType": 5123,
      "count": 18120,
      "type": "SCALAR"
    }
  ],
  "bufferViews": [
    {
      "buffer": 0,
      "byteLength": 40596,
      "byteOffset": 0,
      "target": 34962
    },
    {
      "buffer": 0,
      "byteLength": 40596,
      "byteOffset": 40596,
      "target": 34962
    },
    {
      "buffer": 0,
      "byteLength": 27064,
      "byteOffset": 81192,
      "target": 34962
    },
    {
      "buffer": 0,
      "byteLength": 36240,
      "byteOffset": 108256,
      "target": 34963
    }
  ],
  "samplers": [
    {
      "magFilter": 9729,
      "minFilter": 9987
    }
  ],
  "buffers": [
    {
      "byteLength": 144496,
      "uri": "metal_jug.bin"
    }
  ]
}