{
  "accessors": [
    {
      "bufferView": 2,
      "componentType": 5126,
      "count": 4217,
      "max": [
        25.318340301513672,
        27.633872985839844,
        6.413537502288818
      ],
      "min": [
        -33.901466369628906,
        -48.30113220214844,
        -17.834897994995117
      ],
      "type": "VEC3"
    },
    {
      "bufferView": 2,
      "byteOffset": 50604,
      "componentType": 5126,
      "count": 4217,
      "max": [
        0.9999526143074036,
        0.9986788630485535,
        0.9990638494491577
      ],
      "min": [
        -0.9994608759880066,
        -0.9998589754104614,
        -0.9982908964157104
      ],
      "type": "VEC3"
    },
    {
      "bufferView": 3,
      "componentType": 5126,
      "count": 4217,
      "max": [
        0.9995455145835876,
        0.9999062418937683,
        0.9613001346588135,
        1.0
      ],
      "min": [
        -0.9985836744308472,
        -0.9997677803039551,
        -0.9667999148368835,
        -1.0
      ],
      "type": "VEC4"
    },
    {
      "bufferView": 1,
      "componentType": 5126,
      "count": 4217,
      "max": [
        0.994845986366272,
        0.9878946542739868
      ],
      "min": [
        0.0,
        0.006823751609772444
      ],
      "type": "VEC2"
    },
    {
      "bufferView": 1,
      "byteOffset": 33736,
      "componentType": 5126,
      "count": 4217,
      "max": [
        0.994845986366272,
        0.9878946542739868
      ],
      "min": [
        0.0,
        0.006823751609772444
      ],
      "type": "VEC2"
    },
    {
      "bufferView": 0,
      "componentType": 5125,
      "count": 8196,
      "type": "SCALAR"
    }
  ],
  "asset": {
    "extras": {
      "author": "leunamanuelgc (https://sketchfab.com/leunamanuelgc)",
      "license": "CC-BY-4.0 (http://creativecommons.org/licenses/by/4.0/)",
      "source": "https://sketchfab.com/3d-models/tentacle-007847ced64b4a3dabcbab6c40da6097",
      "title": "Tentacle"
    },
    "generator": "Sketchfab-16.28.0",
    "version": "2.0"
  },
  "bufferViews": [
    {
      "buffer": 0,
      "byteLength": 32784,
      "name": "floatBufferViews",
      "target": 34963
    },
    {
      "buffer": 0,
      "byteLength": 67472,
      "byteOffset": 32784,
      "byteStride": 8,
      "name": "floatBufferViews",
      "target": 34962
    },
    {
      "buffer": 0,
      "byteLength": 101208,
      "byteOffset": 100256,
      "byteStride": 12,
      "name": "floatBufferViews",
      "target": 34962
    },
    {
      "buffer": 0,
      "byteLength": 67472,
      "byteOffset": 201464,
      "byteStride": 16,
      "name": "floatBufferViews",
      "target": 34962
    }
  ],
  "buffers": [
    {
      "byteLength": 268936,
      "uri": "scene.bin"
    }
  ],
  "images": [
    {
      "uri": "textures/Material_27_baseColor.png"
    },
    {
      "uri": "textures/Material_27_metallicRoughness.png"
    },
    {
      "uri": "textures/Material_27_normal.png"
    }
  ],
  "materials": [
    {
      "doubleSided": true,
      "name": "Material_27",
      "normalTexture": {
        "index": 2
      },
      "pbrMetallicRoughness": {
        "baseColorTexture": {
          "index": 0
        },
        "metallicFactor": 0.0,
        "metallicRoughnessTexture": {
          "index": 1
        }
      }
    }
  ],
  "meshes": [
    {
      "name": "Cone001_Material #27_0",
      "primitives": [
        {
          "attributes": {
            "NORMAL": 1,
            "POSITION": 0,
            "TANGENT": 2,
            "TEXCOORD_0": 3,
            "TEXCOORD_1": 4
          },
          "indices": 5,
          "material": 0,
          "mode": 4
        }
      ]
    }
  ],
  "nodes": [
    {
      "children": [
        1
      ],
      "matrix": [
        1.0,
        0.0,
        0.0,
        0.0,
        0.0,
        2.220446049250313e-16,
        -1.0,
        0.0,
        0.0,
        1.0,
        2.220446049250313e-16,
        0.0,
        0.0,
        0.0,
        0.0,
        1.0
      ],
      "name": "Sketchfab_model"
    },
    {
      "children": [
        2
      ],
      "matrix": [
        1.0,
        0.0,
        0.0,
        0.0,
        0.0,
        0.0,
        1.0,
        0.0,
        0.0,
        -1.0,
        0.0,
        0.0,
        0.0,
        0.0,
        0.0,
        1.0
      ],
      "name": "f21183add8a44616b2606feb222feee5.fbx"
    },
    {
      "children": [
        3
      ],
      "name": "RootNode"
    },
    {
      "children": [
        4
      ],
      "matrix": [
        1.0,
        0.0,
        0.0,
        0.0,
        0.0,
        2.220446049250313e-16,
        -1.0,
        0.0,
        0.0,
        1.0,
        2.220446049250313e-16,
        0.0,
        -2.8345565795898438,
        6.316314697265625,
        -5.827067852020264,
        1.0
      ],
      "name": "Dummy001"
    },
    {
      "children": [
        5
      ],
      "matrix": [
        1.0,
        0.0,
        0.0,
        0.0,
        0.0,
        -1.629206838327235e-07,
        0.9999999999999868,
        0.0,
        0.0,
        -0.9999999999999868,
        -1.629206838327235e-07,
        0.0,
        25.371360778808594,
        -5.8270697593688965,
        41.53029251098633,
        1.0
      ],
      "name": "Cone001"
    },
    {
      "children": [
        6
      ],
      "matrix": [
        1.0,
        0.0,
        -0.0,
        0.0,
        0.0,
        1.0,
        0.0,
        0.0,
        0.0,
        0.0,
        1.0,
        0.0,
        0.363121330738068,
        0.0,
        0.0,
        1.0
      ],
      "name": "Object_5"
    },
    {
      "mesh": 0,
      "name": "Cone001_Material #27_0"
    }
  ],
  "samplers": [
    {
      "magFilter": 9729,
      "minFilter": 9987,
      "wrapS": 10497,
      "wrapT": 10497
    }
  ],
  "scene": 0,
  "scenes": [
    {
      "name": "Sketchfab_Scene",
      "nodes": [
        0
      ]
    }
  ],
  "textures": [
    {
      "sampler": 0,
      "source": 0
    },
    {
      "sampler": 0,
      "source": 1
    },
    {
      "sampler": 0,
      "source": 2
    }
  ]
}
