{
  "asset": {
    "generator": "Khronos glTF Blender I/O v4.1.63",
    "version": "2.0"
  },
  "scene": 0,
  "scenes": [
    {
      "name": "blend_export",
      "nodes": [
        0
      ]
    }
  ],
  "nodes": [
    {
      "mesh": 0,
      "name": "wooden_bowl_02"
    }
  ],
  "materials": [
    {
      "doubleSided": true,
      "name": "wooden_bowl_02",
      "normalTexture": {
        "index": 0
      },
      "pbrMetallicRoughness": {
        "baseColorTexture": {
          "index": 1
        },
        "metallicFactor": 0,
        "metallicRoughnessTexture": {
          "index": 2
        }
      }
    }
  ],
  "meshes": [
    {
      "name": "mesh.003",
      "primitives": [
        {
          "attributes": {
            "POSITION": 0,
            "NORMAL": 1,
            "TEXCOORD_0": 2
          },
          "indices": 3,
          "material": 0
        }
      ]
    }
  ],
  "textures": [
    {
      "sampler": 0,
      "source": 0
    },
    {
      "sampler": 0,
      "source": 1
    },
    {
      "sampler": 0,
      "source": 2
    }
  ],
  "images": [
    {
      "mimeType": "image/jpeg",
      "name": "wooden_bowl_02_nor_gl",
      "uri": "textures/wooden_bowl_02_nor_gl_1k.jpg"
    },
    {
      "mimeType": "image/jpeg",
      "name": "wooden_bowl_02_diff",
      "uri": "textures/wooden_bowl_02_diff_1k.jpg"
    },
    {
      "mimeType": "image/jpeg",
      "name": "wooden_bowl_02_rough",
      "uri": "textures/wooden_bowl_02_arm_1k.jpg"
    }
  ],
  "accessors": [
    {
      "bufferView": 0,
      "componentType": 5126,
      "count": 2755,
      "max": [
        0.06580434739589691,
        0.07315139472484589,
        0.0625375434756279
      ],
      "min": [
        -0.06490912288427353,
        0.000053449926781468093,
        -0.06200213357806206
      ],
      "type": "VEC3"
    },
    {
      "bufferView": 1,
      "componentType": 5126,
      "count": 2755,
      "type": "VEC3"
    },
    {
      "bufferView": 2,
      "componentType": 5126,
      "count": 2755,
      "type": "VEC2"
    },
    {
      "bufferView": 3,
      "componentType": 5123,
      "count": 13998,
      "type": "SCALAR"
    }
  ],
  "bufferViews": [
    {
      "buffer": 0,
      "byteLength": 33060,
      "byteOffset": 0,
      "target": 34962
    },
    {
      "buffer": 0,
      "byteLength": 33060,
      "byteOffset": 33060,
      "target": 34962
    },
    {
      "buffer": 0,
      "byteLength": 22040,
      "byteOffset": 66120,
      "target": 34962
    },
    {
      "buffer": 0,
      "byteLength": 27996,
      "byteOffset": 88160,
      "target": 34963
    }
  ],
  "samplers": [
    {
      "magFilter": 9729,
      "minFilter": 9987
    }
  ],
  "buffers": [
    {
      "byteLength": 116156,
      "uri": "wooden_bowl_02.bin"
    }
  ]
}