{
  "asset": {
    "generator": "Khronos glTF Blender I/O v3.4.50",
    "version": "2.0"
  },
  "scene": 0,
  "scenes": [
    {
      "name": "Scene",
      "nodes": [
        0
      ]
    }
  ],
  "nodes": [
    {
      "mesh": 0,
      "name": "planter_box_02"
    }
  ],
  "materials": [
    {
      "doubleSided": true,
      "name": "planter_box_02",
      "normalTexture": {
        "index": 0
      },
      "pbrMetallicRoughness": {
        "baseColorTexture": {
          "index": 1
        },
        "metallicRoughnessTexture": {
          "index": 2
        }
      }
    }
  ],
  "meshes": [
    {
      "name": "Plane.001",
      "primitives": [
        {
          "attributes": {
            "POSITION": 0,
            "TEXCOORD_0": 1,
            "NORMAL": 2
          },
          "indices": 3,
          "material": 0
        }
      ]
    }
  ],
  "textures": [
    {
      "sampler": 0,
      "source": 0
    },
    {
      "sampler": 0,
      "source": 1
    },
    {
      "sampler": 0,
      "source": 2
    }
  ],
  "images": [
    {
      "mimeType": "image/jpeg",
      "name": "planter_box_02_nor_gl",
      "uri": "textures/planter_box_02_nor_gl_1k.jpg"
    },
    {
      "mimeType": "image/jpeg",
      "name": "planter_box_02_diff",
      "uri": "textures/planter_box_02_diff_1k.jpg"
    },
    {
      "mimeType": "image/jpeg",
      "name": "planter_box_02_metal-planter_box_02_rough",
      "uri": "textures/planter_box_02_arm_1k.jpg"
    }
  ],
  "accessors": [
    {
      "bufferView": 0,
      "componentType": 5126,
      "count": 9176,
      "max": [
        0.626691460609436,
        0.4526830017566681,
        0.23242107033729553
      ],
      "min": [
        -0.6248849630355835,
        -0.0006896555423736572,
        -0.23476505279541016
      ],
      "type": "VEC3"
    },
    {
      "bufferView": 1,
      "componentType": 5126,
      "count": 9176,
      "type": "VEC2"
    },
    {
      "bufferView": 2,
      "componentType": 5126,
      "count": 9176,
      "type": "VEC3"
    },
    {
      "bufferView": 3,
      "componentType": 5123,
      "count": 32832,
      "type": "SCALAR"
    }
  ],
  "bufferViews": [
    {
      "buffer": 0,
      "byteLength": 110112,
      "byteOffset": 0,
      "target": 34962
    },
    {
      "buffer": 0,
      "byteLength": 73408,
      "byteOffset": 110112,
      "target": 34962
    },
    {
      "buffer": 0,
      "byteLength": 110112,
      "byteOffset": 183520,
      "target": 34962
    },
    {
      "buffer": 0,
      "byteLength": 65664,
      "byteOffset": 293632,
      "target": 34963
    }
  ],
  "samplers": [
    {
      "magFilter": 9729,
      "minFilter": 9987
    }
  ],
  "buffers": [
    {
      "byteLength": 359296,
      "uri": "planter_box_02.bin"
    }
  ]
}